<svg width="1024" height="1024" viewBox="0 0 1024 1024" fill="none" xmlns="http://www.w3.org/2000/svg">
<rect width="1024" height="1024" rx="230" fill="url(#paint0_linear_4_19)"/>
<g filter="url(#filter0_d_4_19)">
<path fill-rule="evenodd" clip-rule="evenodd" d="M431.874 180.697C428.889 177.712 425.345 175.344 421.445 173.729C417.545 172.113 413.365 171.281 409.143 171.281C404.921 171.281 400.741 172.113 396.841 173.729C392.94 175.344 389.397 177.712 386.411 180.697C383.426 183.682 381.058 187.226 379.443 191.126C377.827 195.027 376.996 199.207 376.996 203.429C376.996 207.65 377.827 211.83 379.443 215.731C381.058 219.631 383.426 223.175 386.411 226.16L479.857 319.606L479.857 479.857L319.606 479.857L226.16 386.411C223.175 383.426 219.631 381.058 215.731 379.443C211.83 377.827 207.65 376.996 203.429 376.996C199.207 376.996 195.027 377.827 191.126 379.443C187.226 381.058 183.682 383.426 180.697 386.411C177.712 389.397 175.344 392.94 173.729 396.841C172.113 400.741 171.281 404.921 171.281 409.143C171.281 413.364 172.113 417.545 173.729 421.445C175.344 425.345 177.712 428.889 180.697 431.874L260.823 512L180.697 592.126C174.668 598.154 171.282 606.331 171.282 614.857C171.282 623.383 174.668 631.56 180.697 637.589C186.726 643.617 194.903 647.004 203.429 647.004C211.955 647.004 220.131 643.617 226.16 637.589L319.606 544.143L479.857 544.143L479.857 704.394L386.411 797.84C380.383 803.869 376.996 812.046 376.996 820.571C376.996 829.097 380.383 837.274 386.411 843.303C392.44 849.332 400.617 852.718 409.143 852.718C417.669 852.718 425.846 849.332 431.874 843.303L512 763.177L592.126 843.303C598.154 849.332 606.331 852.718 614.857 852.718C623.383 852.718 631.56 849.332 637.589 843.303C643.617 837.274 647.004 829.097 647.004 820.571C647.004 812.046 643.617 803.869 637.589 797.84L544.143 704.394L544.143 544.143L704.394 544.143L797.84 637.589C803.869 643.617 812.046 647.004 820.571 647.004C829.097 647.004 837.274 643.617 843.303 637.589C849.332 631.56 852.719 623.383 852.719 614.857C852.719 606.331 849.332 598.154 843.303 592.126L763.177 512L843.303 431.874C849.332 425.846 852.719 417.669 852.719 409.143C852.719 400.617 849.332 392.44 843.303 386.411C837.274 380.383 829.097 376.996 820.571 376.996C812.046 376.996 803.869 380.383 797.84 386.411L704.394 479.857L544.143 479.857L544.143 319.606L637.589 226.16C640.574 223.175 642.942 219.631 644.557 215.731C646.173 211.83 647.004 207.65 647.004 203.429C647.004 199.207 646.173 195.027 644.557 191.126C642.942 187.226 640.574 183.682 637.589 180.697C634.603 177.712 631.06 175.344 627.159 173.729C623.259 172.113 619.079 171.281 614.857 171.281C606.331 171.281 598.154 174.668 592.126 180.697L512 260.823L431.874 180.697Z" fill="white"/>
<rect x="176.124" y="221.379" width="64" height="300" rx="32" transform="rotate(-45 176.124 221.379)" fill="white"/>
<rect x="221.379" y="843.633" width="64" height="300" rx="32" transform="rotate(-135 221.379 843.633)" fill="white"/>
<rect x="586.246" y="631.501" width="64" height="300" rx="32" transform="rotate(-45 586.246 631.501)" fill="white"/>
<rect x="631.501" y="433.511" width="64" height="300" rx="32" transform="rotate(-135 631.501 433.511)" fill="white"/>
</g>
<defs>
<filter id="filter0_d_4_19" x="106.281" y="121.281" width="811.437" height="811.437" filterUnits="userSpaceOnUse" color-interpolation-filters="sRGB">
<feFlood flood-opacity="0" result="BackgroundImageFix"/>
<feColorMatrix in="SourceAlpha" type="matrix" values="0 0 0 0 0 0 0 0 0 0 0 0 0 0 0 0 0 0 127 0" result="hardAlpha"/>
<feOffset dy="15"/>
<feGaussianBlur stdDeviation="32.5"/>
<feComposite in2="hardAlpha" operator="out"/>
<feColorMatrix type="matrix" values="0 0 0 0 0 0 0 0 0 0 0 0 0 0 0 0 0 0 0.15 0"/>
<feBlend mode="normal" in2="BackgroundImageFix" result="effect1_dropShadow_4_19"/>
<feBlend mode="normal" in="SourceGraphic" in2="effect1_dropShadow_4_19" result="shape"/>
</filter>
<linearGradient id="paint0_linear_4_19" x1="512" y1="0" x2="512" y2="1024" gradientUnits="userSpaceOnUse">
<stop stop-color="#B4DCFF"/>
<stop offset="1" stop-color="#7FC1FC"/>
</linearGradient>
</defs>
</svg>
